<svg xmlns="http://www.w3.org/2000/svg" viewBox="0 0 764.43 193.11"><path d="M616.63 101.5c0 20.07-10.68 32.67-27.55 32.67-14.31 0-22.64-8.76-22.64-22.85V43.2h-22.42v69.4c0 24.56 13.88 40.57 38.86 40.57 14.31 0 26.91-5.34 34.38-18.36v16.31h21.78V43.2h-22.42v58.3zM76.61 0C34.3 0 0 34.3 0 76.61s34.3 76.61 76.61 76.61 76.61-34.3 76.61-76.61C153.23 34.3 118.93 0 76.61 0zm0 131.07c-30.03 0-54.46-24.43-54.46-54.46s24.43-54.46 54.46-54.46 54.46 24.43 54.46 54.46-24.43 54.46-54.46 54.46zm174.66-29.57c0 20.07-10.68 32.67-27.55 32.67-14.31 0-22.64-8.76-22.64-22.85V43.2h-22.42v69.4c0 24.56 13.88 40.57 38.86 40.57 14.31 0 26.91-5.34 34.38-18.36v16.31h21.78V43.2h-22.42v58.3zm106.6 29.57c-11.06 0-20.07-9-20.07-20.07V64.46h47.52V43.2H337.8V8.71L315.65 18v25.2h-22.57v21.26h22.57V111c0 23.32 18.9 42.22 42.22 42.22s42.22-18.9 42.22-42.22h-22.16c.01 11.07-8.99 20.07-20.06 20.07zm119.93-90c-16.66 0-29.26 5.01-36.73 19.32V43.2h-22v149.91h22.64V136.9c6.83 11.32 18.36 16.07 33.53 16.07 29.26 0 48.05-22.21 48.05-57.02-.01-33.1-17.09-54.88-45.49-54.88zm-7.05 92.25c-18.58 0-29.9-14.09-29.9-35.88 0-21.78 11.32-36.09 30.11-36.09s29.68 14.31 29.68 35.88c0 21.78-11.1 36.09-29.89 36.09zm271.53-22.31c0 11.06-9 20.07-20.07 20.07s-20.07-9-20.07-20.07V64.46h47.52V43.2h-47.52V8.71L679.99 18v25.2h-22.57v21.26h22.57V111c0 23.32 18.9 42.22 42.22 42.22s42.22-18.9 42.22-42.22h-22.15z" fill="#fff"/></svg>